<?xml version="1.0" encoding="UTF-8"?>
<svg version="1.1" xmlns="http://www.w3.org/2000/svg" width="300" height="300">
<path d="M0 0 C5.56891586 0.39997738 8.52072445 3.92815378 12.25 7.75 C13.14203125 8.61882813 14.0340625 9.48765625 14.953125 10.3828125 C18.85960925 14.20418526 22.66230511 18.04038183 26.20092773 22.20532227 C30.64400695 27.2963136 35.42691542 32.03990908 40.22114563 36.79631042 C41.88113059 38.44333883 43.53780235 40.09363952 45.19372559 41.74475098 C48.70965651 45.24934639 52.22951953 48.74997555 55.75 52.25 C59.83492585 56.31119008 63.91814893 60.37406294 67.99714661 64.44120789 C69.61626771 66.05392583 71.23840784 67.66356218 72.86071777 69.27307129 C77.6653034 74.05407065 82.35092782 78.88014986 86.75946045 84.03460693 C88.96445289 86.57223081 91.31770657 88.91180617 93.7109375 91.2734375 C94.18697418 91.74568756 94.66301086 92.21793762 95.1534729 92.70449829 C96.64150421 94.18052811 98.13280874 95.65317664 99.625 97.125 C101.61485621 99.08826571 103.60135935 101.05483831 105.5859375 103.0234375 C106.45782715 103.88372559 107.3297168 104.74401367 108.22802734 105.63037109 C111.03721996 108.57524073 111.48384788 110.38835545 111.6875 114.375 C111.74808594 115.19226563 111.80867188 116.00953125 111.87109375 116.8515625 C110.02884933 125.44870315 100.96392291 132.36282001 94.99609375 138.33984375 C94.00759425 139.33478432 93.01923933 140.32986854 92.03102112 141.3250885 C89.97284852 143.39515288 87.91067 145.46112808 85.84594727 147.5246582 C83.20402858 150.16637236 80.57621495 152.82166181 77.95159817 155.48055172 C75.92094499 157.53343742 73.88127117 159.57717321 71.83894539 161.61844063 C70.8657125 162.59402826 69.89570863 163.57284854 68.92907524 164.55497551 C67.58001829 165.92364671 66.21692373 167.27843835 64.85327148 168.63256836 C64.08305161 169.40563828 63.31283173 170.17870819 62.51927185 170.97520447 C59.99672539 172.94808585 58.41985627 173.4989281 55.25 173.75 C48.78157651 171.69903645 44.42664081 166.29208452 39.8125 161.5625 C38.99201172 160.73685547 38.17152344 159.91121094 37.32617188 159.06054688 C33.79366421 155.48293137 30.32667618 151.89294548 27.078125 148.0546875 C23.67674583 144.10283043 20.00225792 140.45992522 16.29296875 136.80078125 C15.65984268 136.17551041 15.02671661 135.55023956 14.37440491 134.90602112 C11.72332812 132.29161017 9.06953961 129.68010427 6.40649414 127.07788086 C4.44521615 125.15892406 2.49350685 123.23064543 0.54296875 121.30078125 C-0.0590889 120.71734451 -0.66114655 120.13390778 -1.28144836 119.53279114 C-2.11823372 118.70118721 -2.11823372 118.70118721 -2.97192383 117.8527832 C-3.70636467 117.13285942 -3.70636467 117.13285942 -4.4556427 116.39839172 C-8.43631479 111.32892063 -8.046414 105.86306364 -8.04052734 99.71484375 C-8.04724457 98.70777374 -8.05396179 97.70070374 -8.06088257 96.66311646 C-8.0798636 93.33786065 -8.08378649 90.01280658 -8.0859375 86.6875 C-8.09236407 84.37491777 -8.09909233 82.06233637 -8.10610962 79.74975586 C-8.11808174 74.90444045 -8.12179037 70.05919635 -8.12060547 65.21386719 C-8.120402 59.00283822 -8.14773423 52.79226536 -8.18214989 46.5813446 C-8.20437414 41.80641576 -8.20844442 37.03159759 -8.20738602 32.25662231 C-8.20974756 29.9664655 -8.21860208 27.67630588 -8.23405075 25.38619995 C-8.25362472 22.18552537 -8.24790657 18.98584652 -8.23583984 15.78515625 C-8.24707886 14.83851105 -8.25831787 13.89186584 -8.26989746 12.91653442 C-8.22976726 8.7321536 -8.09711887 6.34534741 -5.95401001 2.66967773 C-3.75 0.75 -3.75 0.75 0 0 Z " fill="#3B51D9" transform="translate(144.75,-0.75)"/>
<path d="M0 0 C2.54340144 1.33863234 3.70639558 2.08736202 4.59278488 4.84260845 C5.0069878 7.03702078 5.13137264 9.03642809 5.14044189 11.26826477 C5.14615204 12.11347687 5.15186218 12.95868896 5.15774536 13.82951355 C5.15942215 15.20808281 5.15942215 15.20808281 5.16113281 16.61450195 C5.16858017 18.07617798 5.16858017 18.07617798 5.17617798 19.56738281 C5.19078272 22.79102281 5.19759875 26.0146136 5.203125 29.23828125 C5.20887775 31.48023988 5.21463547 33.7221985 5.22039795 35.9641571 C5.23090307 40.66580433 5.23674897 45.36743448 5.24023438 50.0690918 C5.24571864 56.08817185 5.26974747 62.10702564 5.29820633 68.12603474 C5.31684657 72.7577734 5.32203905 77.3894577 5.32357025 82.0212307 C5.32659406 84.23995386 5.3346134 86.45867614 5.34775543 88.67736244 C5.36484488 91.78418739 5.36292844 94.89046133 5.35644531 97.99731445 C5.3656601 98.91028793 5.37487488 99.82326141 5.3843689 100.76390076 C5.32891629 109.26399386 2.80087523 114.8025809 -3.24658203 120.82763672 C-3.76900986 121.36349899 -4.29143768 121.89936127 -4.82969666 122.45146179 C-6.54531691 124.20481736 -8.2753858 125.94294643 -10.0078125 127.6796875 C-11.2153695 128.90011216 -12.42263001 130.12083025 -13.62960815 131.34182739 C-16.1561537 133.89225929 -18.69076608 136.43435273 -21.23046875 138.97167969 C-24.47569927 142.21650324 -27.69250997 145.48800076 -30.90292549 148.76722527 C-33.38575528 151.29462328 -35.88665052 153.80353581 -38.39291 156.30768204 C-39.58662335 157.50609961 -40.77389318 158.71097296 -41.95434952 159.92245102 C-52.32052871 170.53533709 -52.32052871 170.53533709 -57.92529297 171.49267578 C-66.14565422 171.23915681 -71.71822655 163.57392553 -77.125 158.140625 C-78.42268311 156.84581207 -78.42268311 156.84581207 -79.74658203 155.52484131 C-81.57114473 153.70163641 -83.39319693 151.87591611 -85.21289062 150.04785156 C-87.98348621 147.26657744 -90.76454568 144.49609271 -93.546875 141.7265625 C-95.32355802 139.94855731 -97.09962022 138.16993151 -98.875 136.390625 C-99.70016113 135.56951233 -100.52532227 134.74839966 -101.37548828 133.90240479 C-113.02069644 122.16319646 -113.02069644 122.16319646 -114.83203125 116.3125 C-114.79242479 111.62309563 -114.24516736 108.73927269 -111.01171875 105.25 C-110.06171997 104.21939453 -110.06171997 104.21939453 -109.0925293 103.16796875 C-104.69110695 98.60786719 -100.19084422 94.15408509 -95.671875 89.7109375 C-94.91390625 88.96070312 -94.1559375 88.21046875 -93.375 87.4375 C-92.70210937 86.77621094 -92.02921875 86.11492187 -91.3359375 85.43359375 C-89.46287631 83.48222733 -87.70728963 81.50457009 -85.95117188 79.45117188 C-81.54637846 74.38439658 -76.79178748 69.67904078 -72.02885437 64.95368958 C-70.36886941 63.30666117 -68.71219765 61.65636048 -67.05627441 60.00524902 C-62.94587777 55.90810448 -58.83000966 51.81647096 -54.71429443 47.72467041 C-51.22481779 44.25504276 -47.73747892 40.78329203 -44.25285339 37.30879211 C-42.63373229 35.69607417 -41.01159216 34.08643782 -39.38928223 32.47692871 C-34.55421523 27.66564575 -29.83062117 22.81116243 -25.39431763 17.62362671 C-23.70787422 15.6598313 -21.93377291 13.80452188 -20.10546875 11.97265625 C-19.13770508 11.00295898 -19.13770508 11.00295898 -18.15039062 10.01367188 C-17.17875977 9.0478418 -17.17875977 9.0478418 -16.1875 8.0625 C-15.52041016 7.39154297 -14.85332031 6.72058594 -14.16601562 6.02929688 C-13.52728516 5.39185547 -12.88855469 4.75441406 -12.23046875 4.09765625 C-11.65707764 3.52539307 -11.08368652 2.95312988 -10.49291992 2.36352539 C-7.23731557 -0.60990883 -4.2725746 -0.29466032 0 0 Z " fill="#3B51D9" transform="translate(114,0)"/>
<path d="M0 0 C2.08390782 1.70527014 3.90900611 3.37198832 5.78417969 5.2824707 C6.33925705 5.83214508 6.89433441 6.38181946 7.4662323 6.94815063 C9.29482541 8.76425606 11.10853397 10.5944563 12.921875 12.42578125 C14.18963001 13.69338128 15.458052 14.96031456 16.72711182 16.22660828 C19.38290934 18.88102182 22.03160013 21.542272 24.67529297 24.20874023 C28.06531617 27.62716207 31.47069229 31.0297827 34.88129807 34.42765522 C37.50171763 37.04112226 40.11471927 39.6619035 42.72544098 42.28505516 C43.97849848 43.54263026 45.23365483 44.79811763 46.49092865 46.05147743 C48.24588876 47.80352925 49.99084228 49.56496817 51.73339844 51.3293457 C52.25494003 51.84638565 52.77648163 52.3634256 53.31382751 52.89613342 C57.99698189 57.67719676 57.99698189 57.67719676 58 61 C56.97770691 62.72218323 56.97770691 62.72218323 55.29370117 64.50610352 C54.64106293 65.20494659 53.98842468 65.90378967 53.31600952 66.62380981 C52.55172638 67.40795258 51.78744324 68.19209534 51 69 C50.14798004 69.88186981 49.29596008 70.76373962 48.41812134 71.67233276 C45.40286177 74.7728132 42.35359384 77.83889886 39.30078125 80.90234375 C38.4739084 81.73345767 38.4739084 81.73345767 37.63033104 82.58136177 C34.72359992 85.5029678 31.81409745 88.42177839 28.90209961 91.33813477 C25.89930602 94.34645346 22.90593349 97.36397132 19.91456318 100.38364315 C17.60418312 102.71261884 15.28714961 105.03488665 12.96822166 107.35534859 C11.86094142 108.46565346 10.75616036 109.57845661 9.65395546 110.69379997 C8.11783267 112.24694833 6.57255809 113.79038818 5.0246582 115.33178711 C3.71063774 116.65127602 3.71063774 116.65127602 2.37007141 117.99742126 C-1.11229665 120.93982891 -1.11229665 120.93982891 -4 121 C-5.71202087 119.98292542 -5.71202087 119.98292542 -7.48803711 118.30297852 C-8.18694061 117.65023956 -8.88584412 116.99750061 -9.60592651 116.32498169 C-10.39597076 115.55773773 -11.18601501 114.79049377 -12 114 C-12.89921173 113.13970184 -13.79842346 112.27940369 -14.72488403 111.39303589 C-21.5148356 104.86580256 -28.18785137 98.21666153 -34.87524414 91.5847168 C-37.34041141 89.1419847 -39.81501292 86.70942818 -42.2980957 84.28491211 C-45.31185881 81.34204634 -48.30824529 78.3825114 -51.29292107 75.41015816 C-52.42928409 74.28420299 -53.57165283 73.16427543 -54.72006416 72.0506115 C-56.31917473 70.49750542 -57.89498388 68.92392441 -59.46704102 67.34350586 C-60.3689064 66.45416855 -61.27077179 65.56483124 -62.19996643 64.64854431 C-64 62 -64 62 -64.10971069 59.02890015 C-62.72835169 55.25854946 -60.60450059 52.93128484 -57.77758789 50.1940918 C-57.2344545 49.64862198 -56.69132111 49.10315216 -56.13172913 48.54115295 C-54.34045245 46.74826644 -52.5320317 44.97382308 -50.72265625 43.19921875 C-49.47232491 41.95567867 -48.22302545 40.71110029 -46.97471619 39.4655304 C-44.36010608 36.86158681 -41.73770731 34.26586146 -39.10864258 31.67651367 C-35.73439569 28.35323882 -32.37323009 25.01712899 -29.01693058 21.67573833 C-25.81856264 18.49214068 -22.61499365 15.31380216 -19.41015625 12.13671875 C-18.79692064 11.52839392 -18.18368504 10.92006908 -17.55186653 10.29331017 C-15.82130955 8.57899089 -14.08723627 6.86832034 -12.35180664 5.15893555 C-11.83692688 4.64831573 -11.32204712 4.13769592 -10.79156494 3.61160278 C-6.94210941 -0.16778433 -5.33638124 -1.74073625 0 0 Z " fill="#2DF2FF" transform="translate(131,134)"/>
</svg>
